<?xml version="1.0" standalone="no"?>
<!DOCTYPE svg PUBLIC "-//W3C//DTD SVG 20010904//EN"
 "http://www.w3.org/TR/2001/REC-SVG-20010904/DTD/svg10.dtd">
<svg version="1.0" xmlns="http://www.w3.org/2000/svg"
 width="80.000000pt" height="80.000000pt" viewBox="0 0 80.000000 80.000000"
 preserveAspectRatio="xMidYMid meet">
<metadata>
Created by potrace 1.14, written by Peter Selinger 2001-2017
</metadata>
<g transform="translate(0.000000,80.000000) scale(0.100000,-0.100000)"
fill="#000000" stroke="none">
<path d="M23 775 c-23 -24 -23 -25 -23 -375 l0 -351 25 -24 24 -25 351 0 351
0 24 25 25 24 0 351 0 351 -25 24 -24 25 -353 -1 -353 0 -22 -24z m412 -45 c3
-5 37 -10 74 -10 74 0 91 -10 91 -52 0 -24 4 -28 28 -28 15 0 33 -5 40 -12 17
-17 17 -519 0 -536 -17 -17 -439 -17 -456 0 -20 20 -15 58 7 58 10 0 21 -7 25
-15 5 -13 33 -15 198 -13 l193 3 0 235 c0 216 -1 235 -17 238 -17 3 -18 -12
-18 -205 0 -149 -3 -212 -12 -221 -17 -17 -439 -17 -456 0 -17 17 -17 519 0
536 7 7 41 12 84 12 40 0 76 5 79 10 3 6 35 10 70 10 35 0 67 -4 70 -10z"/>
<path d="M164 667 c-2 -7 -3 -114 -2 -237 l3 -225 195 0 195 0 0 235 0 235
-54 3 c-30 2 -59 -2 -64 -7 -14 -14 -134 -14 -142 -1 -9 15 -125 13 -131 -3z
m354 -84 c-3 -16 -19 -18 -158 -18 -139 0 -155 2 -158 18 -3 16 10 17 158 17
148 0 161 -1 158 -17z m0 -100 c-3 -16 -19 -18 -158 -18 -139 0 -155 2 -158
18 -3 16 10 17 158 17 148 0 161 -1 158 -17z m0 -100 c-3 -16 -19 -18 -158
-18 -139 0 -155 2 -158 18 -3 16 10 17 158 17 148 0 161 -1 158 -17z m0 -100
c-3 -16 -19 -18 -158 -18 -139 0 -155 2 -158 18 -3 16 10 17 158 17 148 0 161
-1 158 -17z"/>
</g>
</svg>
